# AST/ASF file generated using VICON BodyLanguage
# -----------------------------------------------
:version 1.10
:name VICON
:units
  mass 1.0
  length 0.45
  angle deg
:documentation
   .ast/.asf automatically generated from VICON data using
   VICON BodyBuilder and BodyLanguage model FoxedUp or BRILLIANT.MOD
:root
   order TX TY TZ RX RY RZ
   axis XYZ
   position 0 0 0  
   orientation 0 0 0 
:bonedata
  begin
     id 1 
     name lhipjoint
     direction 0.710188 -0.616876 0.339259 
     length 2.5669 
     axis 0 0 0  XYZ
  end
  begin
     id 2 
     name lfemur
     direction 0.34202 -0.939693 0  
     length 7.12796  
     axis 0 0 20  XYZ
    dof rx ry rz
    limits (-160.0 20.0)
           (-70.0 70.0)
           (-60.0 70.0)
  end
  begin
     id 3 
     name ltibia
     direction 0.34202 -0.939693 0   
     length 7.58108   
     axis 0 0 20   XYZ
    dof rx
    limits (-10.0 170.0)
  end
  begin
     id 4 
     name lfoot
     direction 0.0669471 -0.183936 0.980656   
     length 2.17365   
     axis -90 7.62852e-016 20   XYZ
    dof rx rz
    limits (-45.0 90.0)
           (-70.0 20.0)
  end
  begin
     id 5 
     name ltoes
     direction 1.53508e-011 -4.21705e-011 1   
     length 1.09427   
     axis -90 7.62852e-016 20   XYZ
    dof rx
    limits (-90.0 20.0)
  end
  begin
     id 6 
     name rhipjoint
     direction -0.700191 -0.625589 0.34405   
     length 2.53115  
     axis 0 0 0  XYZ 
  end
  begin
     id 7 
     name rfemur
     direction -0.34202 -0.939693 0   
     length 7.33006   
     axis 0 0 -20   XYZ
    dof rx ry rz
    limits (-160.0 20.0)
           (-70.0 70.0)
           (-70.0 60.0)
  end
  begin
     id 8 
     name rtibia
     direction -0.34202 -0.939693 0   
     length 7.64926   
     axis 0 0 -20   XYZ
    dof rx
    limits (-10.0 170.0)
 end
 begin
     id 9 
     name rfoot
     direction -0.0688927 -0.189281 0.979503   
     length 2.20493  
     axis -90 -7.62852e-016 -20   XYZ
    dof rx rz
    limits (-45.0 90.0)
           (-20.0 70.0)
  end
  begin
     id 10 
     name rtoes
     direction -1.53567e-011 -4.21933e-011 1   
     length 1.10919   
     axis -90 -7.62852e-016 -20   XYZ
    dof rx
    limits (-90.0 20.0)
  end
  begin
     id 11 
     name lowerback
     direction -0.0167868 0.989873 -0.140959   
     length 2.14596   
     axis 0 0 0   XYZ
    dof rx ry rz
    limits (-20.0 45.0)
           (-30.0 30.0)
           (-30.0 30.0)
  end
  begin
     id 12 
     name upperback
     direction 0.0129109 0.998033 0.0613525   
     length 2.10457   
     axis 0 0 0   XYZ
    dof rx ry rz
    limits (-20.0 45.0)
           (-30.0 30.0)
           (-30.0 30.0)
  end
  begin
     id 13 
     name thorax
     direction 0.0177047 0.991119 0.131797   
     length 2.17652   
     axis 0 0 0   XYZ
    dof rx ry rz
    limits (-20.0 45.0)
           (-30.0 30.0)
           (-30.0 30.0)
  end
  begin
     id 14 
     name lowerneck
     direction -0.0336893 0.997548 0.0613464   
     length 1.8912   
     axis 0 0 0   XYZ
    dof rx ry rz
    limits (-20.0 45.0)
           (-30.0 30.0)
           (-30.0 30.0)
  end
  begin
     id 15 
     name upperneck
     direction 0.0435909 0.997179 -0.0611028   
     length 1.8829   
     axis 0 0 0   XYZ
    dof rx ry rz
    limits (-20.0 45.0)
           (-30.0 30.0)
           (-30.0 30.0)
  end
  begin
     id 16
     name head
     direction 0.0175076 0.999444 -0.0283782  
     length 1.93197  
     axis 0 0 0   XYZ
    dof rx ry rz
    limits (-20.0 45.0)
           (-30.0 30.0)
           (-30.0 30.0)
  end
  begin
     id 17 
     name lclavicle
     direction 0.919164 0.389875 0.0559876  
     length 3.60004  
     axis 0 0 0   XYZ
    dof ry rz
    limits (-20.0 10.0)
           (0.0 20.0)
  end
  begin
     id 18 
     name lhumerus
     direction 1 -4.48958e-011 6.89191e-027   
     length 5.43301   
     axis 180 -30 -90   XYZ
    dof rx ry rz
    limits (-60.0 90.0)
           (-90.0 90.0)
           (-90.0 90.0)
  end
  begin
     id 19
     name lradius
     direction 1 -4.4897e-011 3.24727e-027   
     length 3.15936   
     axis 180 -30 -90   XYZ
    dof rx
    limits (-10.0 170.0)
  end
  begin
     id 20
     name lwrist
     direction 1 -4.4897e-011 9.00228e-027   
     length 1.57968   
     axis -6.29373e-015 90 90   XYZ
    dof ry
    limits (-180.0 0.0)
 end
  begin
     id 21 
     name lhand
     direction 1 -4.48968e-011 1.80042e-026   
     length 0.712827   
     axis -1.14882e-014 90 90   XYZ
    dof rx rz
    limits (-90.0 90.0)
           (-45.0 45.0)
  end
  begin
     id 22 
     name lfingers
     direction 1 -4.49019e-011 3.60267e-026   
     length 0.574699   
     axis -2.29769e-014 90 90   XYZ
    dof rx
    limits (0.0 90.0)
  end
  begin
     id 23
     name lthumb
     direction 0.707107 -6.3498e-011 0.707107   
     length 0.825157   
     axis -90 45 5.37419e-014   XYZ
    dof rx rz
    limits (-45.0 45.0)
           (-45.0 45.0)
  end
  begin
     id 24 
     name rclavicle
     direction -0.890334 0.455305 -0.00132111   
     length 3.51494  
     axis 0 0 0   XYZ 
    dof ry rz
    limits (-10.0 20.0)
           (-20.0 0.0)
  end
  begin
     id 25 
     name rhumerus
     direction -1 -4.48967e-011 5.07175e-028  
     length 5.34194   
     axis 180 30 90   XYZ
    dof rx ry rz
    limits (-90.0 60.0)
           (-90.0 90.0)
           (-90.0 90.0)
  end
  begin
     id 26 
     name rradius
     direction -1 -4.48955e-011 3.30467e-027   
     length 3.19351   
     axis 180 30 90   XYZ
    dof rx
    limits (-10.0 170.0)
  end
  begin
     id 27 
     name rwrist
     direction -1 -4.48968e-011 9.00208e-027   
     length 1.59676   
     axis -6.29373e-015 -90 -90   XYZ
    dof ry
    limits (-180.0 0.0)
  end
  begin
     id 28
     name rhand
     direction -1 -4.49e-011 1.80099e-026   
     length 0.743862   
     axis -1.14882e-014 -90 -90   XYZ
    dof rx rz
    limits (-90.0 90.0)
           (-45.0 45.0)
  end
  begin
     id 29
     name rfingers
     direction -1 -4.49009e-011 3.6023e-026   
     length 0.599721   
     axis -2.29769e-014 -90 -90   XYZ
    dof rx
    limits (0.0 90.0)
  end
  begin
     id 30
     name rthumb
     direction -0.707107 -6.35025e-011 0.707107   
     length 0.861083   
     axis -90 -45 -5.37419e-014   XYZ
    dof rx rz
    limits (-45.0 45.0)
           (-45.0 45.0)
  end
:hierarchy
  begin
    root lhipjoint rhipjoint lowerback
    lhipjoint lfemur
    lfemur ltibia
    ltibia lfoot
    lfoot ltoes
    rhipjoint rfemur
    rfemur rtibia
    rtibia rfoot
    rfoot rtoes
    lowerback upperback
    upperback thorax
    thorax lowerneck lclavicle rclavicle
    lowerneck upperneck
    upperneck head
    lclavicle lhumerus
    lhumerus lradius
    lradius lwrist
    lwrist lhand lthumb
    lhand lfingers
    rclavicle rhumerus
    rhumerus rradius
    rradius rwrist
    rwrist rhand rthumb
    rhand rfingers
  end

#!OML:ASF H:\Martial Arts Walks\Project 1\Capture day 1\Session 1\male.ASF
:FULLY-SPECIFIED
:DEGREES
385
root -0.155938 13.8021 -4.46914 12.6535 -32.6764 -16.8759
lowerback 11.5521 1.47914 4.44176
upperback -1.73349 2.99746 5.08054
thorax -8.41777 1.36165 2.36431
lowerneck -3.56393 7.34189 1.41748
upperneck 4.98315 9.59609 2.34441
head 2.11778 4.86628 0.776218
rclavicle 8.24956e-015 -3.10104e-014
rhumerus -77.4114 23.065 -94.6163
rradius 111.747
rwrist -49.985
rhand 0.202309 -12.5087
rfingers 7.12502
rthumb 25.7841 -40.7815
lclavicle 8.24956e-015 -3.10104e-014
lhumerus 4.98263 -5.4721 68.8358
lradius 28.2428
lwrist -39.912
lhand -20.5731 24.2093
lfingers 7.12502
lthumb 5.78648 54.1102
rfemur 6.1493 -6.57909 9.0748
rtibia 39.6563
rfoot -25.1041 -24.8364
rtoes -24.9722
lfemur -65.9619 35.5194 -3.03334
ltibia 72.55
lfoot -3.93848 -14.7836
ltoes 9.74397
386
root -0.158104 13.7893 -4.42199 12.8128 -32.6594 -17.0119
lowerback 11.4668 1.47374 4.49017
upperback -1.76237 2.99565 5.12738
thorax -8.40055 1.35973 2.38971
lowerneck -3.5537 7.3422 1.44502
upperneck 4.999 9.59455 2.34836
head 2.12238 4.86617 0.773066
rclavicle 6.63444e-015 2.50469e-014
rhumerus -77.4676 23.1672 -94.6193
rradius 111.674
rwrist -50.0888
rhand 0.235426 -12.5925
rfingers 7.12502
rthumb 25.8159 -40.8607
lclavicle 6.63444e-015 2.50469e-014
lhumerus 5.01724 -5.71032 68.8019
lradius 28.2989
lwrist -39.7394
lhand -20.5302 24.2449
lfingers 7.12502
lthumb 5.82795 54.1448
rfemur 6.51228 -6.59595 9.0923
rtibia 39.063
rfoot -25.0104 -24.8576
rtoes -25.0612
lfemur -66.2333 35.7748 -3.10285
ltibia 72.992
lfoot -4.26096 -14.8877
ltoes 10.029
387
root -0.161385 13.7757 -4.37701 12.9828 -32.6036 -17.1946
lowerback 11.3794 1.45435 4.58876
upperback -1.78373 2.98175 5.18183
thorax -8.37188 1.34974 2.39738
lowerneck -3.53929 7.33875 1.47325
upperneck 4.99209 9.58853 2.35141
head 2.11884 4.86363 0.768468
rclavicle -4.42296e-015 8.54774e-015
rhumerus -77.5088 23.2658 -94.6366
rradius 111.584
rwrist -50.1263
rhand 0.244413 -12.668
rfingers 7.12502
rthumb 25.8245 -40.9349
lclavicle -4.42296e-015 8.54774e-015
lhumerus 5.0822 -5.89559 68.7694
lradius 28.3107
lwrist -39.6385
lhand -20.4382 24.2393
lfingers 7.12502
lthumb 5.91677 54.1367
rfemur 6.89347 -6.6201 9.17305
rtibia 38.4778
rfoot -24.8884 -24.9034
rtoes -25.196
lfemur -66.5109 36.0054 -3.11258
ltibia 73.4332
lfoot -4.55237 -15.0037
ltoes 10.306
388
root -0.165711 13.7613 -4.33475 13.1566 -32.5022 -17.4032
lowerback 11.2978 1.41988 4.72131
upperback -1.80506 2.95294 5.24102
thorax -8.34505 1.33088 2.39372
lowerneck -3.5229 7.334 1.49406
upperneck 4.97541 9.58107 2.36155
head 2.11098 4.86034 0.766768
rclavicle -1.45858e-014 -3.598e-014
rhumerus -77.5386 23.3532 -94.6646
rradius 111.481
rwrist -50.0953
rhand 0.239285 -12.7467
rfingers 7.12502
rthumb 25.8195 -41.0143
lclavicle -1.45858e-014 -3.598e-014
lhumerus 5.16523 -5.99905 68.7505
lradius 28.2925
lwrist -39.6012
lhand -20.321 24.1609
lfingers 7.12502
lthumb 6.02995 54.0551
rfemur 7.28851 -6.63881 9.30279
rtibia 37.9016
rfoot -24.7362 -24.9711
rtoes -25.4065
lfemur -66.801 36.1969 -3.0842
ltibia 73.8666
lfoot -4.81805 -15.1283
ltoes 10.5644
389
root -0.171064 13.7464 -4.2962 13.3247 -32.3522 -17.6243
lowerback 11.2326 1.37546 4.88067
upperback -1.82842 2.9159 5.30054
thorax -8.32866 1.3065 2.37661
lowerneck -3.52633 7.32071 1.52099
upperneck 4.97779 9.56123 2.36823
head 2.11353 4.85114 0.764236
rclavicle 1.41634e-013 -3.24019e-014
rhumerus -77.5582 23.4093 -94.6992
rradius 111.376
rwrist -50.0216
rhand 0.22006 -12.8496
rfingers 7.12502
rthumb 25.8011 -41.1199
lclavicle 1.41634e-013 -3.24019e-014
lhumerus 5.26813 -6.04331 68.7497
lradius 28.2541
lwrist -39.621
lhand -20.2309 24.029
lfingers 7.12502
lthumb 6.1169 53.9206
rfemur 7.69308 -6.65545 9.47033
rtibia 37.3378
rfoot -24.5579 -25.0498
rtoes -25.6941
lfemur -67.0995 36.336 -3.0263
ltibia 74.2827
lfoot -5.05987 -15.2589
ltoes 10.7855
390
root -0.177401 13.7308 -4.26105 13.481 -32.1719 -17.8558
lowerback 11.1859 1.32699 5.06041
upperback -1.85055 2.87747 5.35835
thorax -8.32082 1.28022 2.34619
lowerneck -3.54852 7.29903 1.55364
upperneck 5.00251 9.52902 2.37406
head 2.12722 4.83612 0.761779
rclavicle -9.91687e-014 4.96962e-014
rhumerus -77.567 23.4302 -94.7376
rradius 111.274
rwrist -49.9445
rhand 0.20174 -12.9869
rfingers 7.12502
rthumb 25.7836 -41.2598
lclavicle -9.91687e-014 4.96962e-014
lhumerus 5.38334 -6.04546 68.763
lradius 28.2084
lwrist -39.7007
lhand -20.1637 23.8758
lfingers 7.12502
lthumb 6.18179 53.7656
rfemur 8.10497 -6.65615 9.66864
rtibia 36.7919
rfoot -24.3559 -25.1451
rtoes -26.0649
lfemur -67.3918 36.4397 -2.93647
ltibia 74.6806
lfoot -5.28374 -15.3965
ltoes 10.9645
391
root -0.184697 13.7143 -4.22898 13.6196 -31.9786 -18.0828
lowerback 11.1524 1.27697 5.23804
upperback -1.87089 2.83747 5.41432
thorax -8.31881 1.25312 2.31507
lowerneck -3.58837 7.27418 1.60135
upperneck 5.05844 9.49133 2.36702
head 2.15586 4.81863 0.754633
rclavicle -5.23301e-014 -2.84262e-014
rhumerus -77.5724 23.4245 -94.7811
rradius 111.178
rwrist -49.9004
rhand 0.193668 -13.1566
rfingers 7.12502
rthumb 25.7759 -41.4306
lclavicle -5.23301e-014 -2.84262e-014
lhumerus 5.49774 -6.02711 68.7822
lradius 28.1654
lwrist -39.8327
lhand -20.1368 23.7439
lfingers 7.12502
lthumb 6.20778 53.6329
rfemur 8.5168 -6.63967 9.87767
rtibia 36.2712
rfoot -24.151 -25.2478
rtoes -26.5015
lfemur -67.673 36.5227 -2.831
ltibia 75.0609
lfoot -5.49549 -15.5391
ltoes 11.1014
392
root -0.192888 13.6968 -4.19928 13.7427 -31.7831 -18.2927
lowerback 11.1218 1.22166 5.38887
upperback -1.88797 2.78648 5.46859
thorax -8.31614 1.22202 2.29903
lowerneck -3.60829 7.24931 1.64609
upperneck 5.09844 9.45471 2.35668
head 2.17566 4.80134 0.7455
rclavicle -9.81748e-014 -1.80894e-014
rhumerus -77.5731 23.4139 -94.8342
rradius 111.093
rwrist -49.9169
rhand 0.191788 -13.3686
rfingers 7.12502
rthumb 25.7741 -41.6429
lclavicle -9.81748e-014 -1.80894e-014
lhumerus 5.60066 -6.00097 68.7895
lradius 28.1331
lwrist -40.0001
lhand -20.1704 23.6671
lfingers 7.12502
lthumb 6.17528 53.5571
rfemur 8.91877 -6.61008 10.0834
rtibia 35.7811
rfoot -23.9516 -25.3663
rtoes -27.0025
lfemur -67.9516 36.6003 -2.73251
ltibia 75.4274
lfoot -5.69553 -15.6866
ltoes 11.2151
393
root -0.201848 13.679 -4.1711 13.8495 -31.608 -18.4828
lowerback 11.0882 1.17046 5.50725
upperback -1.90237 2.73592 5.52241
thorax -8.31035 1.19281 2.30059
lowerneck -3.6123 7.22686 1.68485
upperneck 5.14619 9.42216 2.34177
head 2.19505 4.78584 0.735517
rclavicle -8.72416e-014 -7.95139e-016
rhumerus -77.5863 23.3968 -94.8915
rradius 111.015
rwrist -49.974
rhand 0.201817 -13.5778
rfingers 7.12502
rthumb 25.7837 -41.8506
lclavicle -8.72416e-014 -7.95139e-016
lhumerus 5.68657 -5.9909 68.7922
lradius 28.1084
lwrist -40.1692
lhand -20.2313 23.6384
lfingers 7.12502
lthumb 6.11652 53.5301
rfemur 9.30188 -6.56986 10.2719
rtibia 35.3276
rfoot -23.7748 -25.4807
rtoes -27.5332
lfemur -68.2115 36.6884 -2.64228
ltibia 75.7783
lfoot -5.88955 -15.8305
ltoes 11.3012
394
root -0.211398 13.6617 -4.14436 13.9413 -31.4459 -18.6377
lowerback 11.0468 1.12374 5.58715
upperback -1.91443 2.6846 5.56934
thorax -8.29881 1.16513 2.31642
lowerneck -3.61122 7.20973 1.72055
upperneck 5.18582 9.39707 2.32912
head 2.21054 4.77398 0.726425
rclavicle 9.14409e-014 5.1684e-014
rhumerus -77.609 23.3659 -94.9477
rradius 110.951
rwrist -50.0524
rhand 0.213827 -13.7707
rfingers 7.12502
rthumb 25.7952 -42.0419
lclavicle 9.14409e-014 5.1684e-014
lhumerus 5.76899 -6.01536 68.7876
lradius 28.0945
lwrist -40.2994
lhand -20.3048 23.644
lfingers 7.12502
lthumb 6.04552 53.5378
rfemur 9.65828 -6.53043 10.4329
rtibia 34.9147
rfoot -23.639 -25.5818
rtoes -28.0544
lfemur -68.4649 36.7755 -2.58298
ltibia 76.1106
lfoot -6.07704 -15.9637
ltoes 11.3529
395
root -0.221217 13.6457 -4.11878 14.0162 -31.295 -18.7381
lowerback 10.9926 1.086 5.62196
upperback -1.92767 2.63711 5.60339
thorax -8.28229 1.14141 2.343
lowerneck -3.60976 7.1941 1.75468
upperneck 5.21591 9.37421 2.31754
head 2.22265 4.76315 0.717642
rclavicle 1.22451e-013 5.24792e-014
rhumerus -77.6436 23.3077 -94.9952
rradius 110.899
rwrist -50.118
rhand 0.219898 -13.9205
rfingers 7.12502
rthumb 25.801 -42.1909
lclavicle 1.22451e-013 5.24792e-014
lhumerus 5.8559 -6.09666 68.7831
lradius 28.0888
lwrist -40.3382
lhand -20.3709 23.649
lfingers 7.12502
lthumb 5.98174 53.5445
rfemur 9.97834 -6.51947 10.5406
rtibia 34.5449
rfoot -23.5501 -25.6509
rtoes -28.5404
lfemur -68.7159 36.8513 -2.58068
ltibia 76.4193
lfoot -6.25979 -16.0761
ltoes 11.3772
396
root -0.231045 13.6313 -4.09402 14.0836 -31.165 -18.8071
lowerback 10.932 1.06125 5.63299
upperback -1.94214 2.60265 5.62881
thorax -8.26389 1.12504 2.37126
lowerneck -3.6029 7.18021 1.78251
upperneck 5.23065 9.35426 2.31022
head 2.22816 4.75363 0.710518
rclavicle 2.5345e-014 1.2921e-014
rhumerus -77.6939 23.2266 -95.0311
rradius 110.858
rwrist -50.144
rhand 0.223268 -14.0116
rfingers 7.12502
rthumb 25.8042 -42.2814
lclavicle 2.5345e-014 1.2921e-014
lhumerus 5.94604 -6.23047 68.7831
lradius 28.0913
lwrist -40.2718
lhand -20.407 23.6215
lfingers 7.12502
lthumb 5.9469 53.518
rfemur 10.2589 -6.52794 10.6124
rtibia 34.2178
rfoot -23.5002 -25.6872
rtoes -28.9669
lfemur -68.9522 36.9292 -2.60929
ltibia 76.7052
lfoot -6.43357 -16.169
ltoes 11.3911
397
root -0.240566 13.6188 -4.06992 14.1513 -31.0536 -18.8484
lowerback 10.8617 1.04778 5.62793
upperback -1.96131 2.58006 5.64695
thorax -8.24517 1.11509 2.3987
lowerneck -3.5817 7.16855 1.80232
upperneck 5.22315 9.33847 2.30491
head 2.22317 4.74584 0.704052
rclavicle -4.77083e-015 1.88845e-014
rhumerus -77.7584 23.1304 -95.0551
rradius 110.828
rwrist -50.1238
rhand 0.229185 -14.0424
rfingers 7.12502
rthumb 25.8099 -42.3114
lclavicle -4.77083e-015 1.88845e-014
lhumerus 6.03428 -6.40432 68.7892
lradius 28.1016
lwrist -40.1119
lhand -20.4181 23.5464
lfingers 7.12502
lthumb 5.93616 53.4433
rfemur 10.4952 -6.56104 10.6486
rtibia 33.9316
rfoot -23.4867 -25.6859
rtoes -29.3239
lfemur -69.184 37.0086 -2.67261
ltibia 76.9698
lfoot -6.59971 -16.24
ltoes 11.3862
398
root -0.249492 13.6078 -4.04651 14.2269 -30.9669 -18.8945
lowerback 10.7972 1.04473 5.63014
upperback -1.98225 2.57314 5.66585
thorax -8.23157 1.11229 2.42003
lowerneck -3.55112 7.15915 1.81471
upperneck 5.19952 9.32673 2.29982
head 2.21075 4.73976 0.698029
rclavicle 1.19817e-013 -5.20816e-014
rhumerus -77.8305 23.0329 -95.07
rradius 110.805
rwrist -50.0621
rhand 0.242832 -14.0297
rfingers 7.12502
rthumb 25.8229 -42.2968
lclavicle 1.19817e-013 -5.20816e-014
lhumerus 6.11332 -6.59563 68.7986
lradius 28.1212
lwrist -39.9008
lhand -20.4059 23.4304
lfingers 7.12502
lthumb 5.94793 53.3269
rfemur 10.6922 -6.60285 10.6771
rtibia 33.6822
rfoot -23.4859 -25.6591
rtoes -29.6186
lfemur -69.3993 37.1018 -2.73121
ltibia 77.2184
lfoot -6.75564 -16.2963
ltoes 11.3752
399
root -0.25757 13.5979 -4.02373 14.3147 -30.9044 -18.9567
lowerback 10.7374 1.05029 5.6534
upperback -2.0023 2.58106 5.68743
thorax -8.21914 1.11566 2.42982
lowerneck -3.53925 7.15564 1.83608
upperneck 5.18484 9.32218 2.28523
head 2.20558 4.73733 0.689005
rclavicle -9.50936e-014 -1.94809e-014
rhumerus -77.9029 22.9424 -95.0766
rradius 110.79
rwrist -49.974
rhand 0.271944 -13.9841
rfingers 7.12502
rthumb 25.8508 -42.2472
lclavicle -9.50936e-014 -1.94809e-014
lhumerus 6.18179 -6.78244 68.8103
lradius 28.1485
lwrist -39.6998
lhand -20.3904 23.2989
lfingers 7.12502
lthumb 5.96292 53.195
rfemur 10.8535 -6.64737 10.7067
rtibia 33.4657
rfoot -23.487 -25.6105
rtoes -29.8598
lfemur -69.5991 37.2103 -2.77259
ltibia 77.4563
lfoot -6.90157 -16.3409
ltoes 11.3707
